<svg width="30" height="32" viewBox="0 0 30 32" fill="none" xmlns="http://www.w3.org/2000/svg">
<path d="M0 26.6667H12.5V29.3333H0V26.6667ZM0 18.6667H12.5V21.3333H0V18.6667ZM27.5 13.3333H2.5C1.83696 13.3333 1.20107 13.0524 0.732233 12.5523C0.263392 12.0522 0 11.3739 0 10.6667V2.66667C0 1.95942 0.263392 1.28115 0.732233 0.781048C1.20107 0.280951 1.83696 0 2.5 0H27.5C28.163 0 28.7989 0.280951 29.2678 0.781048C29.7366 1.28115 30 1.95942 30 2.66667V10.6667C30 11.3739 29.7366 12.0522 29.2678 12.5523C28.7989 13.0524 28.163 13.3333 27.5 13.3333ZM2.5 2.66667V10.6667H27.5V2.66667H2.5ZM27.5 32H20C19.337 32 18.7011 31.719 18.2322 31.219C17.7634 30.7189 17.5 30.0406 17.5 29.3333V21.3333C17.5 20.6261 17.7634 19.9478 18.2322 19.4477C18.7011 18.9476 19.337 18.6667 20 18.6667H27.5C28.163 18.6667 28.7989 18.9476 29.2678 19.4477C29.7366 19.9478 30 20.6261 30 21.3333V29.3333C30 30.0406 29.7366 30.7189 29.2678 31.219C28.7989 31.719 28.163 32 27.5 32ZM20 21.3333V29.3333H27.5V21.3333H20Z" fill="#E3D6D6"/>
</svg>
