<svg width="75" height="75" viewBox="0 0 75 75" fill="none" xmlns="http://www.w3.org/2000/svg">
<path d="M0 62.5H31.25V68.75H0V62.5ZM0 43.75H31.25V50H0V43.75ZM68.75 31.25H6.25C4.5924 31.25 3.00268 30.5915 1.83058 29.4194C0.65848 28.2473 0 26.6576 0 25V6.25C0 4.5924 0.65848 3.00268 1.83058 1.83058C3.00268 0.65848 4.5924 0 6.25 0H68.75C70.4076 0 71.9973 0.65848 73.1694 1.83058C74.3415 3.00268 75 4.5924 75 6.25V25C75 26.6576 74.3415 28.2473 73.1694 29.4194C71.9973 30.5915 70.4076 31.25 68.75 31.25ZM6.25 6.25V25H68.75V6.25H6.25ZM68.75 75H50C48.3424 75 46.7527 74.3415 45.5806 73.1694C44.4085 71.9973 43.75 70.4076 43.75 68.75V50C43.75 48.3424 44.4085 46.7527 45.5806 45.5806C46.7527 44.4085 48.3424 43.75 50 43.75H68.75C70.4076 43.75 71.9973 44.4085 73.1694 45.5806C74.3415 46.7527 75 48.3424 75 50V68.75C75 70.4076 74.3415 71.9973 73.1694 73.1694C71.9973 74.3415 70.4076 75 68.75 75ZM50 50V68.75H68.75V50H50Z" fill="white"/>
</svg>
