<svg width="32" height="33" viewBox="0 0 32 33" fill="none" xmlns="http://www.w3.org/2000/svg">
<path fill-rule="evenodd" clip-rule="evenodd" d="M15.9713 0.00010104C12.1791 0.000641509 8.51075 1.42997 5.62248 4.0324C2.7342 6.63484 0.814431 10.2406 0.206573 14.2047C-0.401285 18.1688 0.342426 22.2326 2.30467 25.6692C4.26691 29.1058 7.31968 31.691 10.9169 32.9623C11.7156 33.1194 12.0578 32.5998 12.0578 32.1527V29.277C7.6195 30.292 6.68391 27.0054 6.68391 27.0054C6.37181 25.9697 5.71492 25.0894 4.83556 24.5284C3.38654 23.4893 4.94965 23.5014 4.94965 23.5014C5.45579 23.5771 5.93889 23.7743 6.36206 24.0779C6.78523 24.3816 7.13728 24.7836 7.39131 25.2534C7.83325 26.0928 8.5719 26.712 9.44485 26.9749C10.3178 27.2377 11.2536 27.1227 12.0464 26.655C12.1108 25.7977 12.4677 24.9945 13.0505 24.3955C9.5135 23.9605 5.78256 22.5106 5.78256 16.0341C5.75669 14.3521 6.34531 12.7244 7.42554 11.491C6.93659 10.034 6.99376 8.43394 7.58527 7.02027C7.58527 7.02027 8.9202 6.56112 11.978 8.74813C14.5925 7.99289 17.3502 7.99289 19.9647 8.74813C23.0111 6.56112 24.346 7.02027 24.346 7.02027C24.9375 8.43394 24.9947 10.034 24.5057 11.491C25.5859 12.7244 26.1746 14.3521 26.1487 16.0341C26.1487 22.5347 22.4178 23.9605 18.858 24.3834C19.2393 24.7927 19.5334 25.2839 19.7203 25.8237C19.9073 26.3635 19.9828 26.9395 19.9419 27.5129V32.1527C19.9419 32.7085 20.2271 33.1314 21.0828 32.9623C24.6848 31.6894 27.7407 29.0992 29.7026 25.6563C31.6646 22.2134 32.4042 18.1429 31.7888 14.1748C31.1735 10.2067 29.2434 6.60049 26.3448 4.00289C23.4461 1.4053 19.7685 -0.0137913 15.9713 0.00010104Z" fill="#E3D6D6"/>
</svg>
