<svg width="47" height="47" viewBox="0 0 47 47" fill="none" xmlns="http://www.w3.org/2000/svg">
<path fill-rule="evenodd" clip-rule="evenodd" d="M23.4579 0.000143906C17.8881 0.000913664 12.5002 2.03662 8.25801 5.74312C4.01586 9.44962 1.1962 14.5851 0.303404 20.2309C-0.589387 25.8768 0.502938 31.6646 3.38498 36.5592C6.26703 41.4537 10.7508 45.1356 16.0342 46.9463C17.2072 47.17 17.71 46.43 17.71 45.7933V41.6975C11.1911 43.1431 9.817 38.4622 9.817 38.4622C9.35859 36.9871 8.39379 35.7334 7.10223 34.9344C4.97398 33.4544 7.2698 33.4716 7.2698 33.4716C8.01319 33.5795 8.72275 33.8604 9.34428 34.2928C9.96581 34.7253 10.4829 35.2979 10.856 35.9669C11.5051 37.1625 12.59 38.0444 13.8721 38.4188C15.1543 38.7931 16.5287 38.6292 17.6932 37.9632C17.7878 36.7422 18.312 35.5983 19.1679 34.7451C13.9729 34.1256 8.49313 32.0605 8.49313 22.8365C8.45514 20.4408 9.31967 18.1226 10.9063 16.3659C10.1881 14.2908 10.2721 12.012 11.1409 9.99857C11.1409 9.99857 13.1015 9.34463 17.5926 12.4595C21.4327 11.3838 25.4831 11.3838 29.3231 12.4595C33.7975 9.34463 35.7582 9.99857 35.7582 9.99857C36.6269 12.012 36.7109 14.2908 35.9928 16.3659C37.5794 18.1226 38.4439 20.4408 38.4059 22.8365C38.4059 32.0949 32.9261 34.1256 27.6976 34.7279C28.2577 35.3109 28.6896 36.0103 28.9642 36.7792C29.2388 37.5481 29.3498 38.3684 29.2896 39.185V45.7933C29.2896 46.5849 29.7086 47.1872 30.9654 46.9463C36.2557 45.1334 40.7441 41.4443 43.6257 36.5408C46.5073 31.6372 47.5936 25.8399 46.6898 20.1883C45.7861 14.5368 42.9513 9.40069 38.6939 5.70109C34.4365 2.00148 29.035 -0.0196421 23.4579 0.000143906Z" fill="white"/>
</svg>
