<svg width="32" height="33" viewBox="0 0 32 33" fill="none" xmlns="http://www.w3.org/2000/svg">
<path fill-rule="evenodd" clip-rule="evenodd" d="M11.8864 11.4989H17.8288V14.5514C18.6848 12.7958 20.88 11.2184 24.1776 11.2184C30.4992 11.2184 32 14.7131 32 21.125V33H25.6V22.5852C25.6 18.9337 24.744 16.8746 22.5648 16.8746C19.5424 16.8746 18.2864 19.0938 18.2864 22.5836V33H11.8864V11.4989V11.4989ZM0.912 32.7195H7.312V11.2184H0.912V32.7195V32.7195ZM8.2288 4.2075C8.22904 4.7607 8.12265 5.30844 7.91582 5.81887C7.70899 6.3293 7.40584 6.79225 7.024 7.1808C6.25024 7.97383 5.2029 8.41773 4.112 8.415C3.02302 8.41425 1.9781 7.97148 1.2032 7.18245C0.822738 6.79258 0.520617 6.32911 0.31415 5.81861C0.107682 5.30811 0.000926611 4.76062 0 4.2075C0 3.09045 0.432 2.02125 1.2048 1.23255C1.97902 0.442461 3.02438 -0.000493698 4.1136 4.12936e-07C5.2048 4.12936e-07 6.2512 0.44385 7.024 1.23255C7.7952 2.02125 8.2288 3.09045 8.2288 4.2075Z" fill="#E3D6D6"/>
</svg>
